<?xml version="1.0" encoding="iso-8859-1"?>
<!DOCTYPE svg PUBLIC "-//W3C//DTD SVG 1.1//EN" "http://www.w3.org/Graphics/SVG/1.1/DTD/svg11.dtd">
<svg version="1.1" id="Layer_1" xmlns="http://www.w3.org/2000/svg" xmlns:xlink="http://www.w3.org/1999/xlink" x="0px" y="0px"
	 width="300px" height="300px" viewBox="0 0 300 300" xml:space="preserve">
<path fill="#4e4e4e" d="M188.844,10.551c0,0-19.926-2.507-26.6,6.302s-43.233,40.521-45.303,48.783c-2.07,8.262-21.784,41.869-22.122,48.991
	c-0.337,7.121-8.156,31.719-6.934,36.059s5.798,42.486,11.675,49.211c5.877,6.726,10.596,18.909,18.901,27.485
	c8.306,8.577,15.982,17.747,15.705,24.225c-0.277,6.478,4.354,31.297,4.354,31.297s8.089,0.427,9.138,3.126
	c1.05,2.699,4.104,4.819,7.092,0.661c2.989-4.16-2.922-43.194,3.341-51.065c6.261-7.871,30.915-56.951,35.091-63.39
	c4.178-6.44,18.127-86.431,20.063-100.233s1.73-41.785,0.502-42.55c-1.231-0.765-20.303-5.467-22.843-9.606
	C188.364,15.708,188.844,10.551,188.844,10.551z"/>
</svg>
